<svg width="43" height="24" viewBox="0 0 43 24" fill="none" xmlns="http://www.w3.org/2000/svg">
<path d="M0.0400002 23V0.599998H3.944L10.888 17.752L17.832 0.599998H21.736V23H18.92V5.016L12.488 21.016H9.448L2.856 5.016V23H0.0400002ZM34.8933 23.384C33.0373 23.384 31.5013 23.0427 30.2853 22.36C29.0906 21.656 28.1733 20.7493 27.5333 19.64C26.9146 18.5307 26.5306 17.368 26.3813 16.152H29.4852C29.7199 17.5173 30.3066 18.6267 31.2453 19.48C32.1839 20.3333 33.3999 20.7813 34.8933 20.824C35.8319 20.824 36.6853 20.6747 37.4533 20.376C38.2426 20.056 38.8719 19.6187 39.3413 19.064C39.8106 18.488 40.0346 17.816 40.0133 17.048C40.0133 16.1733 39.7786 15.4907 39.3093 15C38.8399 14.5093 38.2213 14.1253 37.4533 13.848C36.7066 13.5707 35.8746 13.336 34.9573 13.144C34.0399 12.9307 33.1226 12.696 32.2053 12.44C31.2879 12.184 30.4453 11.832 29.6773 11.384C28.9306 10.936 28.3226 10.328 27.8533 9.56C27.3839 8.77067 27.1493 7.74667 27.1493 6.488C27.1493 5.4 27.4159 4.376 27.9493 3.416C28.5039 2.456 29.3466 1.688 30.4773 1.112C31.6079 0.514666 33.0479 0.216 34.7973 0.216C36.0133 0.216 37.0906 0.408 38.0293 0.792C38.9893 1.176 39.7999 1.688 40.4613 2.328C41.1439 2.94667 41.6559 3.62933 41.9973 4.376C42.3599 5.12267 42.5626 5.85867 42.6053 6.584H39.6293C39.5226 5.944 39.2773 5.336 38.8933 4.76C38.5093 4.184 37.9546 3.71467 37.2293 3.352C36.5253 2.968 35.6399 2.776 34.5733 2.776C33.7839 2.776 33.0373 2.91467 32.3333 3.192C31.6293 3.46933 31.0533 3.87467 30.6053 4.408C30.1786 4.94133 29.9653 5.58133 29.9653 6.328C29.9653 7.18133 30.1999 7.85333 30.6693 8.344C31.1386 8.83467 31.7466 9.21867 32.4933 9.496C33.2613 9.77333 34.1039 10.0187 35.0213 10.232C35.9386 10.4453 36.8559 10.68 37.7733 10.936C38.6906 11.192 39.5226 11.544 40.2693 11.992C41.0373 12.44 41.6559 13.048 42.1253 13.816C42.5946 14.5627 42.8293 15.544 42.8293 16.76C42.8293 18.2107 42.4879 19.4373 41.8053 20.44C41.1226 21.4213 40.1839 22.1573 38.9893 22.648C37.8159 23.1387 36.4506 23.384 34.8933 23.384Z" fill="#6131D1"/>
</svg>
