<svg width="31" height="24" viewBox="0 0 31 24" fill="none" xmlns="http://www.w3.org/2000/svg">
<path d="M0.0400002 23.032V0.567999H8.072C9.45867 0.567999 10.6853 0.866666 11.752 1.464C12.8187 2.04 13.6507 2.88267 14.248 3.992C14.8453 5.08 15.144 6.392 15.144 7.928C15.144 9.29333 14.856 10.5093 14.28 11.576C13.7253 12.6213 12.9147 13.4427 11.848 14.04C10.8027 14.6373 9.52267 14.936 8.008 14.936H2.92V23.032H0.0400002ZM2.856 12.376H7.976C9.17067 12.376 10.184 12.0133 11.016 11.288C11.848 10.5627 12.264 9.42133 12.264 7.864C12.264 6.264 11.848 5.08 11.016 4.312C10.184 3.52267 9.18133 3.128 8.008 3.128H2.856V12.376ZM24.122 23.384C23.0553 23.384 22.042 23.16 21.082 22.712C20.122 22.2427 19.3433 21.6027 18.746 20.792C18.1487 19.9813 17.85 19.0533 17.85 18.008H20.73C20.73 18.6693 20.922 19.224 21.306 19.672C21.69 20.0987 22.1593 20.4187 22.714 20.632C23.2687 20.8453 23.8127 20.952 24.346 20.952C25.4127 20.952 26.266 20.76 26.906 20.376C27.546 19.992 27.866 19.4053 27.866 18.616C27.866 17.912 27.6313 17.3893 27.162 17.048C26.6927 16.6853 26.0953 16.4187 25.37 16.248C24.6447 16.056 23.866 15.8853 23.034 15.736C22.202 15.5867 21.4233 15.3733 20.698 15.096C19.9727 14.8187 19.3753 14.392 18.906 13.816C18.4367 13.24 18.202 12.44 18.202 11.416C18.202 10.6267 18.4153 9.86933 18.842 9.144C19.2687 8.41867 19.9087 7.82133 20.762 7.352C21.6367 6.86133 22.7247 6.616 24.026 6.616C25.5833 6.616 26.81 6.872 27.706 7.384C28.6233 7.87467 29.274 8.48267 29.658 9.208C30.0633 9.912 30.266 10.5947 30.266 11.256H27.514C27.514 10.7227 27.2153 10.2213 26.618 9.752C26.0207 9.28267 25.146 9.048 23.994 9.048C22.9487 9.048 22.17 9.26133 21.658 9.688C21.146 10.0933 20.89 10.6373 20.89 11.32C20.89 11.9173 21.1247 12.376 21.594 12.696C22.0633 13.016 22.6607 13.272 23.386 13.464C24.1327 13.6347 24.9113 13.816 25.722 14.008C26.554 14.1787 27.3327 14.4347 28.058 14.776C28.8047 15.096 29.4127 15.5653 29.882 16.184C30.3513 16.7813 30.586 17.592 30.586 18.616C30.586 19.4693 30.3513 20.2587 29.882 20.984C29.434 21.7093 28.73 22.296 27.77 22.744C26.8313 23.1707 25.6153 23.384 24.122 23.384Z" fill="#851FC1"/>
</svg>
